<?xml version="1.0" standalone="no"?>
<!DOCTYPE svg PUBLIC "-//W3C//DTD SVG 20010904//EN"
 "http://www.w3.org/TR/2001/REC-SVG-20010904/DTD/svg10.dtd">
<svg version="1.0" xmlns="http://www.w3.org/2000/svg"
 width="96.000000pt" height="96.000000pt" viewBox="0 0 96.000000 96.000000"
 preserveAspectRatio="xMidYMid meet">

<g transform="translate(0.000000,96.000000) scale(0.100000,-0.100000)"
fill="#000000" stroke="none">
<path d="M1 763 c1 -138 4 -187 10 -161 16 68 70 161 128 219 58 58 151 112
219 128 26 6 -23 9 -160 10 l-198 1 1 -197z"/>
<path d="M602 949 c153 -36 311 -194 347 -347 6 -26 9 23 10 161 l1 197 -197
-1 c-138 -1 -187 -4 -161 -10z"/>
<path d="M600 685 l-24 -26 42 -42 42 -42 25 26 25 25 -43 42 -43 42 -24 -25z"/>
<path d="M425 510 l-110 -110 43 -42 42 -43 110 110 110 110 -43 43 -43 42
-109 -110z"/>
<path d="M1 198 l-1 -198 198 1 c137 1 186 4 160 10 -153 36 -311 194 -347
347 -6 26 -9 -23 -10 -160z"/>
<path d="M950 367 c0 -46 -69 -167 -128 -227 -59 -59 -151 -113 -220 -129 -26
-6 23 -9 161 -10 l197 -1 0 195 c0 107 -2 195 -5 195 -3 0 -5 -10 -5 -23z"/>
<path d="M252 338 c-5 -7 -13 -35 -17 -62 l-8 -49 49 7 c27 4 56 14 64 22 12
12 9 19 -25 54 -43 44 -48 46 -63 28z"/>
</g>
</svg>
